# xmcd CD database file
#
# Track frame offsets:
#	150
#	25882
#	41617
#	62700
#	81875
#	98407
#	120240
#	125577
#	138227
#	158515
#	171855
#	199712
#	220032
#	238612
#	263452
#	275772
#	292755
#	312185
#
# Disc length: 4383 seconds
#
# Revision: 1
# Processed by: cddbd v1.5.1PL2 Copyright (c) Steve Scherf et al.
# Submitted via: CDex 1.51
#
DISCID=eb111d12
DTITLE=Various Artist - El Gran Tesoro De La Musica Cubana Vol. 7
DYEAR=2004
DGENRE=Salsa
TTITLE0=Paulo FG y su Elite/Tu No Me Calculas
TTITLE1=Silvio Rodriguez y Anabell Lopez/Te Amare
TTITLE2=Adalberto Alvarez y su Son/Y Que Tu Quieres Que Te Den
TTITLE3=Grupo Jelengue/Cachita
TTITLE4=Gonzalo Rubalcaba/Mambo Influenciado
TTITLE5=Septeto Turquino/Que Me Haces
TTITLE6=Carlos Ruiz de la Tejera/Hagamos Un Trato
TTITLE7=Juan Carlos Alfonso y su Dan Den/Pare Cochero
TTITLE8=Compay Segundo/Chan Chan
TTITLE9=Ruben Gonzalez/Indestructible
TTITLE10=Adriano Rodriguez y Edesio Alejandro/El Reloj De Pastora
TTITLE11=Grupo Moncada/Magica
TTITLE12=Eliades Ochoa/El Cuarto De Tula
TTITLE13=Augusto Enrique/A Mi Manera
TTITLE14=Chucho Valdes/Balada a Caridad y Emilio
TTITLE15=Orquesto Sinfonica Nacional/Ritmo de la "Pequena Suite Cubana"
TTITLE16=Peruchin Jr./Malanga Amarilla
TTITLE17=Estudiantina Invasora/Tirame la Pelota Maria
EXTD=YEAR: 2004
EXTT0=
EXTT1=
EXTT2=
EXTT3=
EXTT4=
EXTT5=
EXTT6=
EXTT7=
EXTT8=
EXTT9=
EXTT10=
EXTT11=
EXTT12=
EXTT13=
EXTT14=
EXTT15=
EXTT16=
EXTT17=
PLAYORDER=
